<svg width="26" height="26" viewBox="0 0 26 26" fill="none" xmlns="http://www.w3.org/2000/svg">
<g id="brand-instagram">
<path id="Vector" d="M17.5835 8.41687V8.42705M4.85205 8.92613C4.85205 7.84561 5.28128 6.80936 6.04532 6.04532C6.80936 5.28128 7.84561 4.85205 8.92613 4.85205H17.0743C18.1548 4.85205 19.191 5.28128 19.9551 6.04532C20.7191 6.80936 21.1483 7.84561 21.1483 8.92613V17.0743C21.1483 18.1548 20.7191 19.191 19.9551 19.9551C19.191 20.7191 18.1548 21.1483 17.0743 21.1483H8.92613C7.84561 21.1483 6.80936 20.7191 6.04532 19.9551C5.28128 19.191 4.85205 18.1548 4.85205 17.0743V8.92613ZM9.94464 13.0002C9.94464 13.8106 10.2666 14.5878 10.8396 15.1608C11.4126 15.7338 12.1898 16.0558 13.0002 16.0558C13.8106 16.0558 14.5878 15.7338 15.1608 15.1608C15.7338 14.5878 16.0558 13.8106 16.0558 13.0002C16.0558 12.1898 15.7338 11.4126 15.1608 10.8396C14.5878 10.2666 13.8106 9.94464 13.0002 9.94464C12.1898 9.94464 11.4126 10.2666 10.8396 10.8396C10.2666 11.4126 9.94464 12.1898 9.94464 13.0002Z" stroke="#CF3D0F" stroke-width="1.6" stroke-linecap="round" stroke-linejoin="round"/>
</g>
</svg>
