<svg width="22" height="22" viewBox="0 0 22 22" fill="none" xmlns="http://www.w3.org/2000/svg">
<g id="mail">
<path id="Vector" d="M3.05518 6.58623C3.05518 6.11801 3.24118 5.66897 3.57226 5.33788C3.90334 5.0068 4.35239 4.8208 4.82061 4.8208H17.1786C17.6469 4.8208 18.0959 5.0068 18.427 5.33788C18.7581 5.66897 18.9441 6.11801 18.9441 6.58623M3.05518 6.58623V15.4134C3.05518 15.8816 3.24118 16.3307 3.57226 16.6617C3.90334 16.9928 4.35239 17.1788 4.82061 17.1788H17.1786C17.6469 17.1788 18.0959 16.9928 18.427 16.6617C18.7581 16.3307 18.9441 15.8816 18.9441 15.4134V6.58623M3.05518 6.58623L10.9996 11.8825L18.9441 6.58623" stroke="#CF3D0F" stroke-width="1.6" stroke-linecap="round" stroke-linejoin="round"/>
</g>
</svg>
