<svg width="54" height="54" viewBox="0 0 54 54" fill="none" xmlns="http://www.w3.org/2000/svg">
<rect width="54" height="54" rx="27" fill="#D4D1CF"/>
<path d="M17.25 21.5833C17.25 21.0087 17.4783 20.4576 17.8846 20.0513C18.2909 19.6449 18.842 19.4167 19.4167 19.4167H34.5833C35.158 19.4167 35.7091 19.6449 36.1154 20.0513C36.5217 20.4576 36.75 21.0087 36.75 21.5833M17.25 21.5833V32.4167C17.25 32.9913 17.4783 33.5424 17.8846 33.9487C18.2909 34.3551 18.842 34.5833 19.4167 34.5833H34.5833C35.158 34.5833 35.7091 34.3551 36.1154 33.9487C36.5217 33.5424 36.75 32.9913 36.75 32.4167V21.5833M17.25 21.5833L27 28.0833L36.75 21.5833" stroke="#CF3D0F" stroke-width="1.6" stroke-linecap="round" stroke-linejoin="round"/>
</svg>
