<svg width="54" height="54" viewBox="0 0 54 54" fill="none" xmlns="http://www.w3.org/2000/svg">
<rect width="54" height="54" rx="27" fill="#121112"/>
<path d="M32.625 21.375V21.3875M17 22C17 20.6739 17.5268 19.4021 18.4645 18.4645C19.4021 17.5268 20.6739 17 22 17H32C33.3261 17 34.5979 17.5268 35.5355 18.4645C36.4732 19.4021 37 20.6739 37 22V32C37 33.3261 36.4732 34.5979 35.5355 35.5355C34.5979 36.4732 33.3261 37 32 37H22C20.6739 37 19.4021 36.4732 18.4645 35.5355C17.5268 34.5979 17 33.3261 17 32V22ZM23.25 27C23.25 27.9946 23.6451 28.9484 24.3483 29.6517C25.0516 30.3549 26.0054 30.75 27 30.75C27.9946 30.75 28.9484 30.3549 29.6517 29.6517C30.3549 28.9484 30.75 27.9946 30.75 27C30.75 26.0054 30.3549 25.0516 29.6517 24.3483C28.9484 23.6451 27.9946 23.25 27 23.25C26.0054 23.25 25.0516 23.6451 24.3483 24.3483C23.6451 25.0516 23.25 26.0054 23.25 27Z" stroke="#F44C17" stroke-width="1.6" stroke-linecap="round" stroke-linejoin="round"/>
</svg>
