<svg width="82" height="60" viewBox="0 0 82 60" fill="none" xmlns="http://www.w3.org/2000/svg">
<g id="LOGO">
<path id="LOGO_2" fill-rule="evenodd" clip-rule="evenodd" d="M44.0794 14.3808L44.0797 14.3807C50.5135 10.4041 57.8749 5.85415 63.8192 8.0007C66.2261 8.86985 70.2145 12.3748 65.7178 24.6205H67.5964C67.7956 24.6205 67.9269 24.828 67.8416 25.008L60.6989 40.0871H55.5208C55.3028 40.3188 55.0766 40.5607 54.8415 40.8121C52.2676 43.5648 48.6316 47.4533 43.0614 51.5514C47.5922 47.6234 51.1168 43.759 53.9008 40.0871H53.8902C54.0023 39.9363 54.1145 39.7826 54.2268 39.6259C54.301 39.5224 54.3759 39.4178 54.4515 39.3124C59.0249 32.9316 66.0937 23.0693 64.9579 15.7866C64.9579 17.4211 63.3153 27.0932 48.7933 40.2372C48.209 40.766 47.7341 41.2213 47.3526 41.6144C45.017 43.7232 42.5701 45.7231 40.2123 47.2777C36.7109 49.5864 26.1456 55.15 22.8293 51.0006C20.2268 47.7445 23.372 43.3352 23.372 43.3352C22.8293 44.7597 22.5803 46.9295 24.186 48.4907C26.5717 50.8101 36.144 49.4472 46.9078 40.0871H37.3633L24.3501 18.31C24.2346 18.1167 24.3912 17.875 24.6147 17.9013L49.0639 20.7777C49.3062 20.8062 49.5319 20.9156 49.7045 21.0881L53.2369 24.6205H58.8424C61.7221 20.9831 64.0546 15.1329 62.5982 11.596C60.1924 5.75333 46.8602 12.6814 42.6544 15.2591C43.1236 14.9716 43.5989 14.6778 44.0794 14.3808ZM23.0359 19.2033L16.8164 28.2836H12.8067L18.0979 40.0871H29.223L23.7961 28.2836H18.2469L23.0359 19.2033ZM69.1105 26.5878L75.5261 40.1133H77.0876L76.6776 39.4575L69.1105 26.5878ZM10.0933 35.4933C10.0933 35.2123 10.1516 34.9344 10.2647 34.6772C10.9654 33.0823 13.2282 33.076 13.9688 34.6528C14.0963 34.9242 14.1634 35.2227 14.1634 35.5227V40.0871H10.0933V35.4933ZM66.1016 33.3824C66.0278 33.5958 65.9902 33.82 65.9902 34.0458V40.0871H70.0603V34.0693C70.0603 33.8281 70.0171 33.5877 69.9335 33.3615C69.2724 31.5719 66.7247 31.5792 66.1016 33.3824ZM4.78333 40.1133L11.6244 29.18L6.02105 40.1133H4.78333Z" fill="#8B8E92"/>
</g>
</svg>
