<svg width="82" height="60" viewBox="0 0 82 60" fill="none" xmlns="http://www.w3.org/2000/svg">
<g id="LOGO">
<path id="LOGO_2" fill-rule="evenodd" clip-rule="evenodd" d="M44.0794 14.3809L44.0797 14.3807C50.5135 10.4041 57.8749 5.8542 63.8192 8.00075C66.2261 8.86991 70.2145 12.3749 65.7178 24.6206H67.5964C67.7956 24.6206 67.9269 24.828 67.8416 25.0081L60.6989 40.0872H55.5208C55.3028 40.3189 55.0766 40.5608 54.8415 40.8122C52.2676 43.5648 48.6316 47.4534 43.0614 51.5514C47.5922 47.6234 51.1168 43.7591 53.9008 40.0872H53.8902C54.0023 39.9363 54.1145 39.7826 54.2268 39.626C54.301 39.5224 54.3759 39.4179 54.4515 39.3124C59.0249 32.9317 66.0937 23.0694 64.9579 15.7867C64.9579 17.4212 63.3153 27.0933 48.7933 40.2372C48.209 40.7661 47.7341 41.2214 47.3526 41.6144C45.017 43.7233 42.5701 45.7232 40.2123 47.2778C36.7109 49.5864 26.1456 55.15 22.8293 51.0007C20.2268 47.7446 23.372 43.3352 23.372 43.3352C22.8293 44.7598 22.5803 46.9296 24.186 48.4908C26.5717 50.8101 36.144 49.4473 46.9078 40.0872H37.3633L24.3501 18.31C24.2346 18.1168 24.3912 17.875 24.6147 17.9013L49.0639 20.7777C49.3062 20.8062 49.5319 20.9156 49.7045 21.0882L53.2369 24.6206H58.8424C61.7221 20.9831 64.0546 15.133 62.5982 11.596C60.1924 5.75338 46.8602 12.6814 42.6544 15.2592C43.1236 14.9716 43.5989 14.6778 44.0794 14.3809ZM23.0359 19.2033L16.8164 28.2837H12.8067L18.0979 40.0872H29.223L23.7961 28.2837H18.2469L23.0359 19.2033ZM69.1105 26.5878L75.5261 40.1133H77.0876L76.6776 39.4576L69.1105 26.5878ZM10.0933 35.4934C10.0933 35.2124 10.1516 34.9345 10.2647 34.6772C10.9654 33.0824 13.2282 33.0761 13.9688 34.6528C14.0963 34.9243 14.1634 35.2228 14.1634 35.5227V40.0871H10.0933V35.4934ZM66.1016 33.3824C66.0278 33.5958 65.9902 33.82 65.9902 34.0458V40.0872H70.0603V34.0693C70.0603 33.8282 70.0171 33.5877 69.9335 33.3615C69.2724 31.5719 66.7247 31.5793 66.1016 33.3824ZM4.78333 40.1133L11.6244 29.18L6.02105 40.1133H4.78333Z" fill="white"/>
</g>
</svg>
