<svg width="25" height="25" viewBox="0 0 25 25" fill="none" xmlns="http://www.w3.org/2000/svg">
<g id="menu">
<g id="Vector">
<path d="M4.1665 12.5002C4.1665 12.7764 4.27625 13.0414 4.4716 13.2367C4.66695 13.4321 4.9319 13.5418 5.20817 13.5418C5.48444 13.5418 5.74939 13.4321 5.94474 13.2367C6.14009 13.0414 6.24984 12.7764 6.24984 12.5002C6.24984 12.2239 6.14009 11.9589 5.94474 11.7636C5.74939 11.5682 5.48444 11.4585 5.20817 11.4585C4.9319 11.4585 4.66695 11.5682 4.4716 11.7636C4.27625 11.9589 4.1665 12.2239 4.1665 12.5002Z" stroke="#F44C17" stroke-width="2" stroke-linecap="round" stroke-linejoin="round"/>
<path d="M11.4582 12.5002C11.4582 12.7764 11.5679 13.0414 11.7633 13.2367C11.9586 13.4321 12.2236 13.5418 12.4998 13.5418C12.7761 13.5418 13.0411 13.4321 13.2364 13.2367C13.4318 13.0414 13.5415 12.7764 13.5415 12.5002C13.5415 12.2239 13.4318 11.9589 13.2364 11.7636C13.0411 11.5682 12.7761 11.4585 12.4998 11.4585C12.2236 11.4585 11.9586 11.5682 11.7633 11.7636C11.5679 11.9589 11.4582 12.2239 11.4582 12.5002Z" stroke="#F44C17" stroke-width="2" stroke-linecap="round" stroke-linejoin="round"/>
<path d="M18.7498 12.5002C18.7498 12.7764 18.8596 13.0414 19.0549 13.2367C19.2503 13.4321 19.5152 13.5418 19.7915 13.5418C20.0678 13.5418 20.3327 13.4321 20.5281 13.2367C20.7234 13.0414 20.8332 12.7764 20.8332 12.5002C20.8332 12.2239 20.7234 11.9589 20.5281 11.7636C20.3327 11.5682 20.0678 11.4585 19.7915 11.4585C19.5152 11.4585 19.2503 11.5682 19.0549 11.7636C18.8596 11.9589 18.7498 12.2239 18.7498 12.5002Z" stroke="#F44C17" stroke-width="2" stroke-linecap="round" stroke-linejoin="round"/>
</g>
</g>
</svg>
